<?xml version="1.0" encoding="UTF-8"?>
<svg xmlns="http://www.w3.org/2000/svg" width="1200" height="520" viewBox="0 0 1200 520">
  <rect width="1200" height="520" fill="#ffffff"/>
  <text x="90" y="36" font-family="Arial, sans-serif" font-size="24" font-weight="700" fill="#111827">RCA Incident Timeline</text>
  <text x="90" y="60" font-family="Arial, sans-serif" font-size="13" fill="#4b5563">Selected incident INC-20260307T143356Z attributed to /api/slow</text>
  <rect x="1020.5263157894736" y="90" width="109.47368421052636" height="310" fill="#fee2e2" opacity="0.9"/>
  <line x1="90" y1="400" x2="1130" y2="400" stroke="#e5e7eb" stroke-width="1"/>
  <text x="78" y="404" text-anchor="end" font-family="Arial, sans-serif" font-size="11" fill="#6b7280">0</text>
<line x1="90" y1="322.5" x2="1130" y2="322.5" stroke="#e5e7eb" stroke-width="1"/>
  <text x="78" y="326.5" text-anchor="end" font-family="Arial, sans-serif" font-size="11" fill="#6b7280">0.25</text>
<line x1="90" y1="245" x2="1130" y2="245" stroke="#e5e7eb" stroke-width="1"/>
  <text x="78" y="249" text-anchor="end" font-family="Arial, sans-serif" font-size="11" fill="#6b7280">0.5</text>
<line x1="90" y1="167.5" x2="1130" y2="167.5" stroke="#e5e7eb" stroke-width="1"/>
  <text x="78" y="171.5" text-anchor="end" font-family="Arial, sans-serif" font-size="11" fill="#6b7280">0.75</text>
<line x1="90" y1="90" x2="1130" y2="90" stroke="#e5e7eb" stroke-width="1"/>
  <text x="78" y="94" text-anchor="end" font-family="Arial, sans-serif" font-size="11" fill="#6b7280">1</text>
  <line x1="90" y1="183.15716999999998" x2="1130" y2="183.15716999999998" stroke="#dc2626" stroke-width="1.5" stroke-dasharray="6 5"/>
  <text x="1130" y="175.15716999999998" text-anchor="end" font-family="Arial, sans-serif" font-size="11" fill="#dc2626">threshold 0.699</text>
  <line x1="90" y1="90" x2="90" y2="400" stroke="#111827" stroke-width="1.5"/>
  <line x1="90" y1="400" x2="1130" y2="400" stroke="#111827" stroke-width="1.5"/>
  <polyline fill="none" stroke="#2563eb" stroke-width="2.5" points="144.73684210526315,209.04774999999998 199.4736842105263,213.99535 254.21052631578945,211.95307 308.9473684210526,214.14601000000002 363.6842105263158,182.5288 418.4210526315789,275.25476000000003 473.1578947368421,275.25476000000003 527.8947368421052,275.25476000000003 582.6315789473683,275.25476000000003 637.3684210526316,275.25476000000003 692.1052631578948,208.67048 746.8421052631578,214.45539 801.578947368421,183.63736 856.3157894736842,183.36641999999998 911.0526315789474,224.91231 965.7894736842105,215.14731 1020.5263157894736,209.46811 1075.2631578947367,182.12548999999999 1130,179.37455"/>
  <circle cx="144.73684210526315" cy="209.04774999999998" r="3" fill="#2563eb"/>
<circle cx="199.4736842105263" cy="213.99535" r="3" fill="#2563eb"/>
<circle cx="254.21052631578945" cy="211.95307" r="3" fill="#2563eb"/>
<circle cx="308.9473684210526" cy="214.14601000000002" r="3" fill="#2563eb"/>
<circle cx="363.6842105263158" cy="182.5288" r="5" fill="#dc2626"/>
<circle cx="418.4210526315789" cy="275.25476000000003" r="3" fill="#2563eb"/>
<circle cx="473.1578947368421" cy="275.25476000000003" r="3" fill="#2563eb"/>
<circle cx="527.8947368421052" cy="275.25476000000003" r="3" fill="#2563eb"/>
<circle cx="582.6315789473683" cy="275.25476000000003" r="3" fill="#2563eb"/>
<circle cx="637.3684210526316" cy="275.25476000000003" r="3" fill="#2563eb"/>
<circle cx="692.1052631578948" cy="208.67048" r="3" fill="#2563eb"/>
<circle cx="746.8421052631578" cy="214.45539" r="3" fill="#2563eb"/>
<circle cx="801.578947368421" cy="183.63736" r="3" fill="#2563eb"/>
<circle cx="856.3157894736842" cy="183.36641999999998" r="3" fill="#2563eb"/>
<circle cx="911.0526315789474" cy="224.91231" r="3" fill="#2563eb"/>
<circle cx="965.7894736842105" cy="215.14731" r="3" fill="#2563eb"/>
<circle cx="1020.5263157894736" cy="209.46811" r="3" fill="#2563eb"/>
<circle cx="1075.2631578947367" cy="182.12548999999999" r="5" fill="#dc2626"/>
<circle cx="1130" cy="179.37455" r="5" fill="#dc2626"/>
  <line x1="1020.5263157894736" y1="400" x2="1020.5263157894736" y2="424" stroke="#6b7280" stroke-width="1" stroke-dasharray="3 4"/>
  <circle cx="1020.5263157894736" cy="400" r="5" fill="#111827"/>
  <text x="1020.5263157894736" y="442" text-anchor="middle" font-family="Arial, sans-serif" font-size="11" font-weight="700" fill="#111827">normal state</text>
  <text x="1020.5263157894736" y="457" text-anchor="middle" font-family="Arial, sans-serif" font-size="10" fill="#6b7280">14:33:26</text>
<line x1="1020.5263157894736" y1="400" x2="1020.5263157894736" y2="460" stroke="#6b7280" stroke-width="1" stroke-dasharray="3 4"/>
  <circle cx="1020.5263157894736" cy="400" r="5" fill="#111827"/>
  <text x="1020.5263157894736" y="478" text-anchor="middle" font-family="Arial, sans-serif" font-size="11" font-weight="700" fill="#111827">anomaly start</text>
  <text x="1020.5263157894736" y="493" text-anchor="middle" font-family="Arial, sans-serif" font-size="10" fill="#6b7280">14:33:26</text>
<line x1="1128.1754385964912" y1="400" x2="1128.1754385964912" y2="424" stroke="#6b7280" stroke-width="1" stroke-dasharray="3 4"/>
  <circle cx="1128.1754385964912" cy="400" r="5" fill="#111827"/>
  <text x="1128.1754385964912" y="442" text-anchor="middle" font-family="Arial, sans-serif" font-size="11" font-weight="700" fill="#111827">peak incident</text>
  <text x="1128.1754385964912" y="457" text-anchor="middle" font-family="Arial, sans-serif" font-size="10" fill="#6b7280">14:34:25</text>
<line x1="1130" y1="400" x2="1130" y2="460" stroke="#6b7280" stroke-width="1" stroke-dasharray="3 4"/>
  <circle cx="1130" cy="400" r="5" fill="#111827"/>
  <text x="1130" y="478" text-anchor="middle" font-family="Arial, sans-serif" font-size="11" font-weight="700" fill="#111827">recovery</text>
  <text x="1130" y="493" text-anchor="middle" font-family="Arial, sans-serif" font-size="10" fill="#6b7280">14:34:26</text>
  <text x="26" y="245" transform="rotate(-90 26 245)" text-anchor="middle" font-family="Arial, sans-serif" font-size="12" fill="#374151">Anomaly score</text>
  <text x="600" y="500" text-anchor="middle" font-family="Arial, sans-serif" font-size="12" fill="#374151">Incident lifecycle</text>
</svg>