<?xml version="1.0" encoding="UTF-8"?>
<svg xmlns="http://www.w3.org/2000/svg" width="1200" height="420" viewBox="0 0 1200 420">
  <rect width="1200" height="420" fill="#ffffff"/>
  <text x="80" y="28" font-family="Arial, sans-serif" font-size="20" font-weight="700" fill="#111827">/api/slow Avg Latency Timeline</text>
  <text x="80" y="50" font-family="Arial, sans-serif" font-size="12" fill="#4b5563">30-second windows with predicted anomaly points highlighted</text>
  <rect x="980.266" y="70" width="240.0000000000001" height="280" fill="#fee2e2" opacity="0.8"/>
  
  <line x1="80" y1="350" x2="1160" y2="350" stroke="#e5e7eb" stroke-width="1"/>
  <text x="68" y="354" text-anchor="end" font-family="Arial, sans-serif" font-size="11" fill="#6b7280">0</text>
  <line x1="80" y1="294" x2="1160" y2="294" stroke="#e5e7eb" stroke-width="1"/>
  <text x="68" y="298" text-anchor="end" font-family="Arial, sans-serif" font-size="11" fill="#6b7280">1252</text>
  <line x1="80" y1="238" x2="1160" y2="238" stroke="#e5e7eb" stroke-width="1"/>
  <text x="68" y="242" text-anchor="end" font-family="Arial, sans-serif" font-size="11" fill="#6b7280">2504</text>
  <line x1="80" y1="182" x2="1160" y2="182" stroke="#e5e7eb" stroke-width="1"/>
  <text x="68" y="186" text-anchor="end" font-family="Arial, sans-serif" font-size="11" fill="#6b7280">3755</text>
  <line x1="80" y1="126.00000000000003" x2="1160" y2="126.00000000000003" stroke="#e5e7eb" stroke-width="1"/>
  <text x="68" y="130.00000000000003" text-anchor="end" font-family="Arial, sans-serif" font-size="11" fill="#6b7280">5007</text>
  <line x1="80" y1="70" x2="1160" y2="70" stroke="#e5e7eb" stroke-width="1"/>
  <text x="68" y="74" text-anchor="end" font-family="Arial, sans-serif" font-size="11" fill="#6b7280">6259</text>
  <line x1="80" y1="70" x2="80" y2="350" stroke="#111827" stroke-width="1.5"/>
  <line x1="80" y1="350" x2="1160" y2="350" stroke="#111827" stroke-width="1.5"/>
  <polyline fill="none" stroke="#1d4ed8" stroke-width="2.5" points="80,260.13975689410097 140,311.32982419309667 200,279.2599826524109 260,307.43027532946917 320,293.8653745285052 380,350 440,350 500,350 560,350 620,350 680,350 740,321.7642153011871 800,268.6381072115516 860,81.08018538817902 920,277.8723928089786 980,286.87879837989044 1040,265.1914106267643 1100,304.29211595372675 1160,70"/>
  
  <circle cx="80" cy="260.13975689410097" r="2.5" fill="#2563eb" opacity="0.85"/><circle cx="140" cy="311.32982419309667" r="2.5" fill="#2563eb" opacity="0.85"/><circle cx="200" cy="279.2599826524109" r="2.5" fill="#2563eb" opacity="0.85"/><circle cx="260" cy="307.43027532946917" r="2.5" fill="#2563eb" opacity="0.85"/><circle cx="320" cy="293.8653745285052" r="4" fill="#dc2626" opacity="0.85"/><circle cx="380" cy="350" r="2.5" fill="#2563eb" opacity="0.85"/><circle cx="440" cy="350" r="2.5" fill="#2563eb" opacity="0.85"/><circle cx="500" cy="350" r="2.5" fill="#2563eb" opacity="0.85"/><circle cx="560" cy="350" r="2.5" fill="#2563eb" opacity="0.85"/><circle cx="620" cy="350" r="2.5" fill="#2563eb" opacity="0.85"/><circle cx="680" cy="350" r="2.5" fill="#2563eb" opacity="0.85"/><circle cx="740" cy="321.7642153011871" r="2.5" fill="#2563eb" opacity="0.85"/><circle cx="800" cy="268.6381072115516" r="2.5" fill="#2563eb" opacity="0.85"/><circle cx="860" cy="81.08018538817902" r="2.5" fill="#2563eb" opacity="0.85"/><circle cx="920" cy="277.8723928089786" r="2.5" fill="#2563eb" opacity="0.85"/><circle cx="980" cy="286.87879837989044" r="2.5" fill="#2563eb" opacity="0.85"/><circle cx="1040" cy="265.1914106267643" r="2.5" fill="#2563eb" opacity="1"/><circle cx="1100" cy="304.29211595372675" r="4" fill="#dc2626" opacity="1"/><circle cx="1160" cy="70" r="4" fill="#dc2626" opacity="1"/>
  
  <line x1="80" y1="350" x2="80" y2="356" stroke="#111827" stroke-width="1"/>
  <text x="80" y="372" text-anchor="middle" font-family="Arial, sans-serif" font-size="11" fill="#6b7280">14:25:26</text>
  <line x1="260" y1="350" x2="260" y2="356" stroke="#111827" stroke-width="1"/>
  <text x="260" y="372" text-anchor="middle" font-family="Arial, sans-serif" font-size="11" fill="#6b7280">14:26:56</text>
  <line x1="380" y1="350" x2="380" y2="356" stroke="#111827" stroke-width="1"/>
  <text x="380" y="372" text-anchor="middle" font-family="Arial, sans-serif" font-size="11" fill="#6b7280">14:27:56</text>
  <line x1="560" y1="350" x2="560" y2="356" stroke="#111827" stroke-width="1"/>
  <text x="560" y="372" text-anchor="middle" font-family="Arial, sans-serif" font-size="11" fill="#6b7280">14:29:26</text>
  <line x1="680" y1="350" x2="680" y2="356" stroke="#111827" stroke-width="1"/>
  <text x="680" y="372" text-anchor="middle" font-family="Arial, sans-serif" font-size="11" fill="#6b7280">14:30:26</text>
  <line x1="860" y1="350" x2="860" y2="356" stroke="#111827" stroke-width="1"/>
  <text x="860" y="372" text-anchor="middle" font-family="Arial, sans-serif" font-size="11" fill="#6b7280">14:31:56</text>
  <line x1="980" y1="350" x2="980" y2="356" stroke="#111827" stroke-width="1"/>
  <text x="980" y="372" text-anchor="middle" font-family="Arial, sans-serif" font-size="11" fill="#6b7280">14:32:56</text>
  <line x1="1160" y1="350" x2="1160" y2="356" stroke="#111827" stroke-width="1"/>
  <text x="1160" y="372" text-anchor="middle" font-family="Arial, sans-serif" font-size="11" fill="#6b7280">14:34:26</text>
  <text x="600" y="402" text-anchor="middle" font-family="Arial, sans-serif" font-size="12" fill="#374151">Time</text>
  <text x="20" y="210" transform="rotate(-90 20 210)" text-anchor="middle" font-family="Arial, sans-serif" font-size="12" fill="#374151">Latency (ms)</text>
  <rect x="930" y="22" width="14" height="14" fill="#fee2e2"/>
  <text x="952" y="33" font-family="Arial, sans-serif" font-size="11" fill="#374151">Ground-truth anomaly interval</text>
  <circle cx="1040" cy="29" r="4" fill="#dc2626"/>
  <text x="1052" y="33" font-family="Arial, sans-serif" font-size="11" fill="#374151">Predicted anomaly</text>
</svg>