<?xml version="1.0" encoding="UTF-8"?>
<svg xmlns="http://www.w3.org/2000/svg" width="1200" height="1100" viewBox="0 0 1200 1100">
  <rect width="1200" height="1100" fill="#ffffff"/>
  <text x="40" y="36" font-family="Arial, sans-serif" font-size="24" font-weight="700" fill="#111827">ML Anomaly Detection Overview</text>
  <text x="40" y="58" font-family="Arial, sans-serif" font-size="13" fill="#4b5563">30-second windows from reconstructed Prometheus telemetry</text>
  <g transform="translate(0, 90)">
    <text x="72" y="24" font-family="Arial, sans-serif" font-size="17" font-weight="700" fill="#111827">/api/slow Avg Latency</text>
    <rect x="982.2689555555555" y="40" width="242.66666666666674" height="188" fill="#fee2e2"/>
    <line x1="72" y1="40" x2="72" y2="228" stroke="#111827" stroke-width="1.5"/>
    <line x1="72" y1="228" x2="1164" y2="228" stroke="#111827" stroke-width="1.5"/>
    <line x1="72" y1="228" x2="1164" y2="228" stroke="#e5e7eb" stroke-width="1"/>
      <text x="62" y="232" text-anchor="end" font-family="Arial, sans-serif" font-size="10" fill="#6b7280">0</text><line x1="72" y1="181" x2="1164" y2="181" stroke="#e5e7eb" stroke-width="1"/>
      <text x="62" y="185" text-anchor="end" font-family="Arial, sans-serif" font-size="10" fill="#6b7280">1565</text><line x1="72" y1="134" x2="1164" y2="134" stroke="#e5e7eb" stroke-width="1"/>
      <text x="62" y="138" text-anchor="end" font-family="Arial, sans-serif" font-size="10" fill="#6b7280">3130</text><line x1="72" y1="87" x2="1164" y2="87" stroke="#e5e7eb" stroke-width="1"/>
      <text x="62" y="91" text-anchor="end" font-family="Arial, sans-serif" font-size="10" fill="#6b7280">4694</text><line x1="72" y1="40" x2="1164" y2="40" stroke="#e5e7eb" stroke-width="1"/>
      <text x="62" y="44" text-anchor="end" font-family="Arial, sans-serif" font-size="10" fill="#6b7280">6259</text>
    <polyline fill="none" stroke="#1d4ed8" stroke-width="2.5" points="72,167.66526534318206 132.66666666666666,202.03573910107917 193.33333333333331,180.5031312094759 254,199.4174705783579 314.66666666666663,190.30960861199634 375.33333333333337,228 436,228 496.6666666666667,228 557.3333333333333,228 618,228 678.6666666666667,228 739.3333333333334,209.04168741651134 800,173.3713005563275 860.6666666666666,47.43955304634878 921.3333333333334,179.57146374317134 982,185.61862176935503 1042.6666666666665,171.05708999225607 1103.3333333333333,197.31042071178797 1164,40"/>
    
    <circle cx="72" cy="167.66526534318206" r="2.5" fill="#1d4ed8"/><circle cx="132.66666666666666" cy="202.03573910107917" r="2.5" fill="#1d4ed8"/><circle cx="193.33333333333331" cy="180.5031312094759" r="2.5" fill="#1d4ed8"/><circle cx="254" cy="199.4174705783579" r="2.5" fill="#1d4ed8"/><circle cx="314.66666666666663" cy="190.30960861199634" r="4" fill="#dc2626"/><circle cx="375.33333333333337" cy="228" r="2.5" fill="#1d4ed8"/><circle cx="436" cy="228" r="2.5" fill="#1d4ed8"/><circle cx="496.6666666666667" cy="228" r="2.5" fill="#1d4ed8"/><circle cx="557.3333333333333" cy="228" r="2.5" fill="#1d4ed8"/><circle cx="618" cy="228" r="2.5" fill="#1d4ed8"/><circle cx="678.6666666666667" cy="228" r="2.5" fill="#1d4ed8"/><circle cx="739.3333333333334" cy="209.04168741651134" r="2.5" fill="#1d4ed8"/><circle cx="800" cy="173.3713005563275" r="2.5" fill="#1d4ed8"/><circle cx="860.6666666666666" cy="47.43955304634878" r="2.5" fill="#1d4ed8"/><circle cx="921.3333333333334" cy="179.57146374317134" r="2.5" fill="#1d4ed8"/><circle cx="982" cy="185.61862176935503" r="2.5" fill="#1d4ed8"/><circle cx="1042.6666666666665" cy="171.05708999225607" r="2.5" fill="#1d4ed8"/><circle cx="1103.3333333333333" cy="197.31042071178797" r="4" fill="#dc2626"/><circle cx="1164" cy="40" r="4" fill="#dc2626"/>
    <text x="72" y="262" text-anchor="middle" font-family="Arial, sans-serif" font-size="10" fill="#6b7280">14:25:26</text><text x="254" y="262" text-anchor="middle" font-family="Arial, sans-serif" font-size="10" fill="#6b7280">14:26:56</text><text x="375.33333333333337" y="262" text-anchor="middle" font-family="Arial, sans-serif" font-size="10" fill="#6b7280">14:27:56</text><text x="557.3333333333333" y="262" text-anchor="middle" font-family="Arial, sans-serif" font-size="10" fill="#6b7280">14:29:26</text><text x="678.6666666666667" y="262" text-anchor="middle" font-family="Arial, sans-serif" font-size="10" fill="#6b7280">14:30:26</text><text x="860.6666666666666" y="262" text-anchor="middle" font-family="Arial, sans-serif" font-size="10" fill="#6b7280">14:31:56</text><text x="982" y="262" text-anchor="middle" font-family="Arial, sans-serif" font-size="10" fill="#6b7280">14:32:56</text><text x="1164" y="262" text-anchor="middle" font-family="Arial, sans-serif" font-size="10" fill="#6b7280">14:34:26</text>
    <text x="18" y="140" transform="rotate(-90 18 140)" text-anchor="middle" font-family="Arial, sans-serif" font-size="11" fill="#374151">ms</text></g>
  <g transform="translate(0, 410)">
    <text x="72" y="24" font-family="Arial, sans-serif" font-size="17" font-weight="700" fill="#111827">System Error Rate</text>
    <rect x="982.2689555555555" y="40" width="242.66666666666674" height="188" fill="#fee2e2"/>
    <line x1="72" y1="40" x2="72" y2="228" stroke="#111827" stroke-width="1.5"/>
    <line x1="72" y1="228" x2="1164" y2="228" stroke="#111827" stroke-width="1.5"/>
    <line x1="72" y1="228" x2="1164" y2="228" stroke="#e5e7eb" stroke-width="1"/>
      <text x="62" y="232" text-anchor="end" font-family="Arial, sans-serif" font-size="10" fill="#6b7280">0</text><line x1="72" y1="181" x2="1164" y2="181" stroke="#e5e7eb" stroke-width="1"/>
      <text x="62" y="185" text-anchor="end" font-family="Arial, sans-serif" font-size="10" fill="#6b7280">0.25</text><line x1="72" y1="134" x2="1164" y2="134" stroke="#e5e7eb" stroke-width="1"/>
      <text x="62" y="138" text-anchor="end" font-family="Arial, sans-serif" font-size="10" fill="#6b7280">0.5</text><line x1="72" y1="87" x2="1164" y2="87" stroke="#e5e7eb" stroke-width="1"/>
      <text x="62" y="91" text-anchor="end" font-family="Arial, sans-serif" font-size="10" fill="#6b7280">0.75</text><line x1="72" y1="40" x2="1164" y2="40" stroke="#e5e7eb" stroke-width="1"/>
      <text x="62" y="44" text-anchor="end" font-family="Arial, sans-serif" font-size="10" fill="#6b7280">1</text>
    <polyline fill="none" stroke="#059669" stroke-width="2.5" points="72,202.508516 132.66666666666666,214.327324 193.33333333333331,208.358136 254,217.928652 314.66666666666663,216.25 375.33333333333337,228 436,228 496.6666666666667,228 557.3333333333333,228 618,228 678.6666666666667,228 739.3333333333334,213.695644 800,207.490892 860.6666666666666,160.85711600000002 921.3333333333334,212.808096 982,215.346096 1042.6666666666665,199.391288 1103.3333333333333,208.448 1164,102.66660399999999"/>
    
    <circle cx="72" cy="202.508516" r="2.5" fill="#059669"/><circle cx="132.66666666666666" cy="214.327324" r="2.5" fill="#059669"/><circle cx="193.33333333333331" cy="208.358136" r="2.5" fill="#059669"/><circle cx="254" cy="217.928652" r="2.5" fill="#059669"/><circle cx="314.66666666666663" cy="216.25" r="4" fill="#dc2626"/><circle cx="375.33333333333337" cy="228" r="2.5" fill="#059669"/><circle cx="436" cy="228" r="2.5" fill="#059669"/><circle cx="496.6666666666667" cy="228" r="2.5" fill="#059669"/><circle cx="557.3333333333333" cy="228" r="2.5" fill="#059669"/><circle cx="618" cy="228" r="2.5" fill="#059669"/><circle cx="678.6666666666667" cy="228" r="2.5" fill="#059669"/><circle cx="739.3333333333334" cy="213.695644" r="2.5" fill="#059669"/><circle cx="800" cy="207.490892" r="2.5" fill="#059669"/><circle cx="860.6666666666666" cy="160.85711600000002" r="2.5" fill="#059669"/><circle cx="921.3333333333334" cy="212.808096" r="2.5" fill="#059669"/><circle cx="982" cy="215.346096" r="2.5" fill="#059669"/><circle cx="1042.6666666666665" cy="199.391288" r="2.5" fill="#059669"/><circle cx="1103.3333333333333" cy="208.448" r="4" fill="#dc2626"/><circle cx="1164" cy="102.66660399999999" r="4" fill="#dc2626"/>
    <text x="72" y="262" text-anchor="middle" font-family="Arial, sans-serif" font-size="10" fill="#6b7280">14:25:26</text><text x="254" y="262" text-anchor="middle" font-family="Arial, sans-serif" font-size="10" fill="#6b7280">14:26:56</text><text x="375.33333333333337" y="262" text-anchor="middle" font-family="Arial, sans-serif" font-size="10" fill="#6b7280">14:27:56</text><text x="557.3333333333333" y="262" text-anchor="middle" font-family="Arial, sans-serif" font-size="10" fill="#6b7280">14:29:26</text><text x="678.6666666666667" y="262" text-anchor="middle" font-family="Arial, sans-serif" font-size="10" fill="#6b7280">14:30:26</text><text x="860.6666666666666" y="262" text-anchor="middle" font-family="Arial, sans-serif" font-size="10" fill="#6b7280">14:31:56</text><text x="982" y="262" text-anchor="middle" font-family="Arial, sans-serif" font-size="10" fill="#6b7280">14:32:56</text><text x="1164" y="262" text-anchor="middle" font-family="Arial, sans-serif" font-size="10" fill="#6b7280">14:34:26</text>
    <text x="18" y="140" transform="rotate(-90 18 140)" text-anchor="middle" font-family="Arial, sans-serif" font-size="11" fill="#374151">rate</text></g>
  <g transform="translate(0, 730)">
    <text x="72" y="24" font-family="Arial, sans-serif" font-size="17" font-weight="700" fill="#111827">Anomaly Score</text>
    <rect x="982.2689555555555" y="40" width="242.66666666666674" height="188" fill="#fee2e2"/>
    <line x1="72" y1="40" x2="72" y2="228" stroke="#111827" stroke-width="1.5"/>
    <line x1="72" y1="228" x2="1164" y2="228" stroke="#111827" stroke-width="1.5"/>
    <line x1="72" y1="228" x2="1164" y2="228" stroke="#e5e7eb" stroke-width="1"/>
      <text x="62" y="232" text-anchor="end" font-family="Arial, sans-serif" font-size="10" fill="#6b7280">0</text><line x1="72" y1="181" x2="1164" y2="181" stroke="#e5e7eb" stroke-width="1"/>
      <text x="62" y="185" text-anchor="end" font-family="Arial, sans-serif" font-size="10" fill="#6b7280">0.25</text><line x1="72" y1="134" x2="1164" y2="134" stroke="#e5e7eb" stroke-width="1"/>
      <text x="62" y="138" text-anchor="end" font-family="Arial, sans-serif" font-size="10" fill="#6b7280">0.5</text><line x1="72" y1="87" x2="1164" y2="87" stroke="#e5e7eb" stroke-width="1"/>
      <text x="62" y="91" text-anchor="end" font-family="Arial, sans-serif" font-size="10" fill="#6b7280">0.75</text><line x1="72" y1="40" x2="1164" y2="40" stroke="#e5e7eb" stroke-width="1"/>
      <text x="62" y="44" text-anchor="end" font-family="Arial, sans-serif" font-size="10" fill="#6b7280">1</text>
    <polyline fill="none" stroke="#7c3aed" stroke-width="2.5" points="72,112.19669999999999 132.66666666666666,115.19718 193.33333333333331,113.958636 254,115.288548 314.66666666666663,96.11424 375.33333333333337,152.348048 436,152.348048 496.6666666666667,152.348048 557.3333333333333,152.348048 618,152.348048 678.6666666666667,111.967904 739.3333333333334,115.47617199999999 800,96.786528 860.6666666666666,96.62221599999998 921.3333333333334,121.817788 982,115.895788 1042.6666666666665,112.451628 1103.3333333333333,95.869652 1164,94.20134000000002"/>
    <line x1="72" y1="96.495316" x2="1164" y2="96.495316" stroke="#ef4444" stroke-width="1.5" stroke-dasharray="6 4"/>
    <circle cx="72" cy="112.19669999999999" r="2.5" fill="#7c3aed"/><circle cx="132.66666666666666" cy="115.19718" r="2.5" fill="#7c3aed"/><circle cx="193.33333333333331" cy="113.958636" r="2.5" fill="#7c3aed"/><circle cx="254" cy="115.288548" r="2.5" fill="#7c3aed"/><circle cx="314.66666666666663" cy="96.11424" r="4" fill="#dc2626"/><circle cx="375.33333333333337" cy="152.348048" r="2.5" fill="#7c3aed"/><circle cx="436" cy="152.348048" r="2.5" fill="#7c3aed"/><circle cx="496.6666666666667" cy="152.348048" r="2.5" fill="#7c3aed"/><circle cx="557.3333333333333" cy="152.348048" r="2.5" fill="#7c3aed"/><circle cx="618" cy="152.348048" r="2.5" fill="#7c3aed"/><circle cx="678.6666666666667" cy="111.967904" r="2.5" fill="#7c3aed"/><circle cx="739.3333333333334" cy="115.47617199999999" r="2.5" fill="#7c3aed"/><circle cx="800" cy="96.786528" r="2.5" fill="#7c3aed"/><circle cx="860.6666666666666" cy="96.62221599999998" r="2.5" fill="#7c3aed"/><circle cx="921.3333333333334" cy="121.817788" r="2.5" fill="#7c3aed"/><circle cx="982" cy="115.895788" r="2.5" fill="#7c3aed"/><circle cx="1042.6666666666665" cy="112.451628" r="2.5" fill="#7c3aed"/><circle cx="1103.3333333333333" cy="95.869652" r="4" fill="#dc2626"/><circle cx="1164" cy="94.20134000000002" r="4" fill="#dc2626"/>
    <text x="72" y="262" text-anchor="middle" font-family="Arial, sans-serif" font-size="10" fill="#6b7280">14:25:26</text><text x="254" y="262" text-anchor="middle" font-family="Arial, sans-serif" font-size="10" fill="#6b7280">14:26:56</text><text x="375.33333333333337" y="262" text-anchor="middle" font-family="Arial, sans-serif" font-size="10" fill="#6b7280">14:27:56</text><text x="557.3333333333333" y="262" text-anchor="middle" font-family="Arial, sans-serif" font-size="10" fill="#6b7280">14:29:26</text><text x="678.6666666666667" y="262" text-anchor="middle" font-family="Arial, sans-serif" font-size="10" fill="#6b7280">14:30:26</text><text x="860.6666666666666" y="262" text-anchor="middle" font-family="Arial, sans-serif" font-size="10" fill="#6b7280">14:31:56</text><text x="982" y="262" text-anchor="middle" font-family="Arial, sans-serif" font-size="10" fill="#6b7280">14:32:56</text><text x="1164" y="262" text-anchor="middle" font-family="Arial, sans-serif" font-size="10" fill="#6b7280">14:34:26</text>
    <text x="18" y="140" transform="rotate(-90 18 140)" text-anchor="middle" font-family="Arial, sans-serif" font-size="11" fill="#374151">score</text></g>
</svg>